<?xml version="1.0" standalone="no"?><!DOCTYPE svg PUBLIC "-//W3C//DTD SVG 1.1//EN" "http://www.w3.org/Graphics/SVG/1.1/DTD/svg11.dtd"><svg t="1768444850420" class="icon" viewBox="0 0 1024 1024" version="1.1" xmlns="http://www.w3.org/2000/svg" p-id="4679" xmlns:xlink="http://www.w3.org/1999/xlink" width="200" height="200"><path d="M821.394 861.482H200.242c-23.709 0-44.013-20.191-45.124-44.975 0 0-30.555-129.896-30.044-166.228 0.325-23.102 15.23-164.3 15.23-164.3 2.449-27.739 18.019-48.258 42.686-48.258h646.233c24.667 0 44.357 21.769 43.759 48.258l14.579 163.622-22.043 166.906c-0.56 24.784-20.414 44.975-44.124 44.975z m24.716-358.364l0.292-10.498c0.23-8.275-6.452-15.059-14.85-15.059H186.497c-8.397 0-14.828 6.784-14.291 15.059l0.681 10.498c0.534 8.232 7.802 14.954 16.153 14.954h641.472c8.35 0 15.37-6.722 15.598-14.954z m8.739 81.304l0.296-10.264c0.233-8.091-6.628-14.724-15.248-14.724H177.735c-8.62 0-15.226 6.633-14.681 14.724l0.691 10.264c0.542 8.049 7.999 14.622 16.571 14.622H838.84c8.574 0 15.777-6.572 16.009-14.622z m6.172 79.506l0.298-10.038c0.235-7.912-6.747-14.399-15.516-14.399H172.234c-8.769 0-15.494 6.487-14.945 14.399l0.695 10.038c0.545 7.872 8.126 14.3 16.847 14.3h669.91c8.721 0 16.047-6.428 16.28-14.3z m-14.901 77.765l0.282-9.819c0.222-7.74-6.466-14.085-14.863-14.085H186.526c-8.397 0-14.841 6.345-14.322 14.085l0.659 9.819c0.517 7.701 7.772 13.989 16.123 13.989h641.548c8.351 0 15.365-6.288 15.586-13.989z m-8.749 76.081l0.267-9.608c0.21-7.573-6.189-13.781-14.222-13.781H206.385c-8.033 0-14.202 6.208-13.711 13.781l0.623 9.608c0.489 7.535 7.425 13.688 15.415 13.688h613.751c7.99 0.001 14.698-6.152 14.908-13.688z m1.869-378.856l36.038-94.167 21.623-119.775H785.183L752.749 356.56l-118.926 82.358H839.24z" fill="#080202" p-id="4680"></path></svg>